PathFileType	4	(X/Y/Z)	s10c0303.trc
DataRate	CameraRate	NumFrames	NumMarkers	Units	OrigDataRate	OrigDataStartFrame	OrigNumFrames
200	200	5	50	mm	200	1750	2000
Frame#	Time	racr			lacr			c7			jug			rlel			rdr			llel			ldr			s2			lic			ric			lasi			rasi			rpsi			lpsi			rgt			lgt			rth1			rth2			rth3			rth4			rlfc			rmfc			rsh1			rsh2			rsh3			rsh4			rlmal			rmmal			rcal			rtoe			rmt5			lth1			lth2			lth4			lth3			llfc			lmfc			llmal			lmmal			lcal			lmt5			lsh1			lsh2			lsh3			lsh4			ltoe			SBIKE			LBIKE			RBIKE			
		X1	Y1	Z1	X2	Y2	Z2	X3	Y3	Z3	X4	Y4	Z4	X5	Y5	Z5	X6	Y6	Z6	X7	Y7	Z7	X8	Y8	Z8	X9	Y9	Z9	X10	Y10	Z10	X11	Y11	Z11	X12	Y12	Z12	X13	Y13	Z13	X14	Y14	Z14	X15	Y15	Z15	X16	Y16	Z16	X17	Y17	Z17	X18	Y18	Z18	X19	Y19	Z19	X20	Y20	Z20	X21	Y21	Z21	X22	Y22	Z22	X23	Y23	Z23	X24	Y24	Z24	X25	Y25	Z25	X26	Y26	Z26	X27	Y27	Z27	X28	Y28	Z28	X29	Y29	Z29	X30	Y30	Z30	X31	Y31	Z31	X32	Y32	Z32	X33	Y33	Z33	X34	Y34	Z34	X35	Y35	Z35	X36	Y36	Z36	X37	Y37	Z37	X38	Y38	Z38	X39	Y39	Z39	X40	Y40	Z40	X41	Y41	Z41	X42	Y42	Z42	X43	Y43	Z43	X44	Y44	Z44	X45	Y45	Z45	X46	Y46	Z46	X47	Y47	Z47	X48	Y48	Z48	X49	Y49	Z49	X50	Y50	Z50	
1750	8.7500	681.347355	1303.502814	-61.845519	637.067244	1298.799501	-361.821363	649.318325	1322.256475	-207.314346	621.401631	1178.889529	-196.635989	580.814603	1059.389929	53.859085	640.901145	873.423302	-52.765290	549.726890	1065.549035	-495.018846	643.521004	879.455384	-414.292117	110.590891	1167.962999	-228.829181	286.367655	1166.992032	-359.586868	269.653007	1144.357838	-78.926078	303.140569	1078.286016	-347.650771	266.884023	1067.352741	-92.086331	155.717370	1213.808074	-164.307835	175.476457	1225.824271	-273.298056	156.944442	1058.887569	-40.642013	175.718581	1051.416885	-425.985500	245.343576	939.248147	-30.062599	326.926336	905.655333	-43.471115	377.091460	837.409521	-53.591344	347.976384	936.202513	-48.508794	470.968561	778.532135	-74.309648	458.088419	769.535896	-195.427000	393.052694	697.944828	-39.941296	364.965753	612.942885	-44.881565	300.719555	555.560826	-43.837203	389.756490	598.344862	-70.654491	239.552300	457.025752	-55.424645	261.747279	470.051514	-136.827011	178.808770	443.804482	-99.136792	413.239457	378.964926	-108.566426	331.171518	367.270241	-42.798411	223.543817	918.725995	-435.561502	274.763989	851.653528	-416.492027	304.322175	866.198179	-400.689495	285.802106	764.156084	-409.324845	312.642870	652.741331	-387.482092	295.470565	644.339999	-272.530385	10.913104	412.133039	-390.043379	23.251228	402.851170	-311.538623	-42.253726	433.482401	-341.262621	14.880163	264.379749	-398.286683	197.572794	594.182418	-424.447873	155.577076	517.773021	-408.496422	78.821627	472.821089	-404.873160	178.306627	499.866516	-383.632496	83.543183	222.270265	-345.920635	-217.312956	830.669118	-213.847412	-103.916067	80.719686	-418.365821	-103.941489	80.623012	-18.342863	
1751	8.7550	681.912097	1304.410793	-63.575211	637.855308	1299.478966	-362.833380	649.902625	1323.278894	-208.421561	621.469927	1180.031297	-198.207284	581.313862	1060.541455	51.946028	641.106068	873.579207	-52.947303	550.626898	1066.005093	-495.168852	643.637889	879.519889	-414.294838	111.244915	1170.235024	-226.058207	284.864575	1169.746600	-359.118076	271.009641	1145.517301	-77.668714	302.273108	1080.480617	-347.040326	268.212554	1068.377339	-91.689744	156.839569	1215.223115	-161.326161	175.498485	1227.922806	-270.460433	157.855968	1059.432984	-39.621589	174.827846	1054.427370	-424.329262	244.173433	937.859579	-29.615435	324.459125	901.199807	-43.477564	372.398637	831.623028	-53.872442	346.609784	931.365593	-48.661482	464.509523	769.174616	-75.320710	450.220681	760.403158	-195.668107	388.145968	686.669961	-40.062426	361.534112	601.305759	-45.554414	298.477223	542.606230	-44.216466	386.303969	587.429729	-71.758942	239.107256	443.891277	-55.467031	260.779604	457.631734	-137.141587	178.391612	429.575057	-99.021579	414.245990	369.944258	-108.427139	332.340955	356.292621	-42.719654	225.179641	921.423220	-434.026864	278.559579	855.895211	-414.704685	308.177759	871.893534	-399.997011	292.990224	768.740386	-407.717323	322.480054	657.598344	-386.004898	306.313890	648.215045	-271.441022	15.574428	422.016832	-389.768586	28.470875	411.786257	-311.737255	-36.633886	445.342803	-341.077237	13.492765	274.004223	-398.185206	206.803193	599.998203	-423.432327	163.243931	525.015851	-408.071609	85.213459	482.091053	-405.041235	185.187202	506.505123	-382.756335	80.243641	228.886634	-345.829470	-217.348915	830.623087	-213.869276	-103.905006	80.713605	-418.359049	-103.948195	80.635213	-18.332965	
1752	8.7600	682.177184	1305.452714	-65.219849	638.618906	1300.205768	-363.853652	650.284751	1324.303745	-209.644846	621.678540	1181.253127	-199.632417	582.095560	1061.812179	50.050409	641.302532	873.594408	-53.078272	551.558447	1066.448192	-495.475763	643.743635	879.542077	-414.303588	111.950550	1172.449481	-223.460863	283.484386	1172.074287	-358.385636	272.584419	1146.545015	-76.459950	301.521481	1082.373981	-346.344766	269.543116	1069.187497	-91.206367	157.882484	1216.797912	-158.392721	175.286918	1229.621063	-267.474833	158.921438	1059.953156	-38.555634	173.963091	1056.971098	-422.585018	243.188597	936.329731	-29.012404	322.054098	897.127372	-43.360021	367.550986	825.794021	-54.088489	345.129441	926.411397	-48.841835	457.708013	759.079980	-76.255088	442.220795	750.892652	-195.783775	382.679738	675.171695	-39.866150	357.735662	589.443409	-46.379882	295.985060	529.350488	-44.463069	382.415547	576.244677	-73.021255	238.357853	430.593021	-55.705121	259.567849	444.900135	-137.519081	177.763412	415.761394	-99.098185	414.695781	360.599005	-108.325898	333.131473	345.117121	-42.519563	226.890183	924.231312	-432.540609	282.698394	860.542539	-413.745908	311.831674	877.504226	-399.325686	300.310221	773.914482	-406.879788	331.760639	662.986574	-384.688473	317.860858	652.484020	-269.820290	20.641537	431.788802	-389.552621	34.462008	420.655205	-312.051596	-30.597674	456.792873	-340.182078	12.748067	283.615828	-398.090245	216.523373	605.936576	-422.822911	170.927565	532.099385	-407.437228	91.851491	491.114475	-405.036443	192.151280	513.179435	-381.786128	77.637379	235.783297	-345.854380	-217.304072	830.647676	-213.909709	-103.906873	80.724203	-418.382206	-103.928149	80.646014	-18.354899	
1753	8.7650	682.163330	1306.800761	-66.608558	639.354524	1301.004369	-364.791847	650.595980	1325.307952	-210.910410	622.008299	1182.408093	-201.236875	582.864272	1063.121431	48.027513	641.429106	873.669644	-53.273283	552.397121	1066.877748	-495.969166	643.853686	879.492177	-414.408557	112.637582	1174.066533	-220.521753	282.233102	1174.154001	-357.592444	274.366423	1147.130272	-75.236416	300.867448	1084.104465	-345.585283	270.882450	1069.760392	-90.709803	158.961591	1217.973800	-155.491836	174.862903	1231.078415	-264.432546	159.951038	1060.335146	-37.640093	173.245010	1059.302808	-420.759855	242.240342	934.515066	-28.228767	319.648066	892.720663	-43.256820	362.600935	819.783298	-54.309014	343.713615	921.085783	-49.103292	450.508162	749.111809	-77.491147	434.331739	740.836942	-196.005533	377.384347	663.190305	-40.094327	354.051010	577.451385	-46.970801	293.045517	515.961383	-44.842219	378.163368	564.882316	-74.472370	237.265243	417.744460	-55.824491	258.007729	432.478172	-137.970937	176.679399	401.951586	-99.407529	414.497178	351.122532	-108.298075	333.153995	333.932673	-42.406203	228.852578	927.162559	-431.039602	286.655194	865.190204	-412.833649	315.349558	883.048582	-398.613773	307.070428	779.093970	-406.016820	340.508980	668.598481	-383.679310	328.753291	657.042936	-268.494438	25.988398	441.578780	-389.297744	38.252282	430.929496	-308.768885	-24.455990	467.992967	-339.930179	12.547401	293.312139	-398.036339	226.105001	611.770941	-422.158046	178.746090	539.004994	-406.805091	98.691723	499.846892	-404.924830	199.267460	520.200638	-381.344817	75.568420	242.930479	-345.671683	-217.247002	830.686769	-213.900306	-103.913131	80.720578	-418.387406	-103.923534	80.644136	-18.357539	
1754	8.7700	682.016414	1308.156737	-67.696774	639.981030	1301.955756	-365.819736	650.820331	1326.415432	-212.250925	622.412517	1183.672396	-203.041714	583.867775	1064.450258	46.056100	641.541833	873.742514	-53.482706	553.239845	1067.282604	-496.513155	643.921521	879.511134	-414.454202	113.363640	1175.485966	-217.691849	280.940188	1175.817997	-356.631965	276.086890	1147.504147	-74.301081	298.965863	1085.034876	-343.701290	272.171313	1070.082334	-90.168373	159.959213	1218.908750	-152.732997	174.725953	1232.267947	-261.766535	161.008593	1060.242873	-36.768284	172.637777	1061.139545	-418.814522	241.357979	932.448982	-27.487689	317.220189	888.168960	-43.032062	357.588561	813.747317	-54.469770	342.101319	915.751158	-49.206927	442.821765	738.455564	-78.470584	425.673466	730.418510	-196.092201	371.572871	651.111951	-40.315953	349.621120	564.991607	-47.989741	289.934462	502.463773	-45.358097	374.607804	553.259153	-75.734876	235.509889	404.992886	-56.113036	255.906083	419.775427	-138.353304	175.292145	387.964516	-100.070771	414.041614	341.486346	-107.642941	332.789035	322.705726	-42.279880	230.675832	930.163033	-429.572461	290.452351	869.776000	-411.896429	318.728752	888.460927	-398.031809	313.347838	784.269876	-405.129253	348.742911	674.140603	-382.809052	339.235631	661.868869	-267.209823	31.266157	451.061244	-388.879109	43.401763	440.336076	-308.723447	-18.005269	479.101283	-339.682113	12.983601	303.275867	-397.947336	235.526319	617.332085	-421.237573	186.974967	545.682462	-406.585621	105.709951	508.253222	-404.711496	206.490765	526.690610	-379.765489	74.224442	250.877989	-345.789659	-217.249511	830.631323	-213.832769	-103.896028	80.717282	-418.368600	-103.915885	80.633762	-18.352425	
